%
M48
M72
T01C0.0200
T02C0.1300
T03C0.1575
%
T01
X12833Y27640
X12333Y29640
X13333Y29640
X12833Y31640
X11833Y31640
X12333Y33640
X13333Y33640
X13833Y31640
X13833Y35640
X12833Y35640
X11833Y35640
X12333Y37640
X13333Y37640
X12833Y39640
X11833Y39640
X12333Y41640
X13333Y41640
X13833Y39640
X13833Y43640
X12833Y43640
X11833Y43640
X17833Y43640
X18833Y43640
X19833Y43640
X19333Y41640
X18333Y41640
X17833Y39640
X18833Y39640
X19833Y39640
X19333Y37640
X18333Y37640
X17833Y35640
X18833Y35640
X19833Y35640
X19333Y33640
X18333Y33640
X17833Y31640
X18833Y31640
X19833Y31640
X19333Y29640
X18333Y29640
X18833Y27640
T02
X19333Y49640
X12333Y49640
T03
X12733Y47140
X15833Y49240
X18933Y47140
M30
