G75*
%MOIN*%
%OFA0B0*%
%FSLAX25Y25*%
%IPPOS*%
%LPD*%
%AMOC8*
5,1,8,0,0,1.08239X$1,22.5*
%
%ADD10C,0.01000*%
%ADD11R,0.03950X0.04343*%
%ADD12R,0.04737X0.05131*%
%ADD13C,0.13800*%
%ADD14C,0.04737*%
%ADD15C,0.20800*%
%ADD16R,0.03280X0.04068*%
D10*
X0123333Y0266400D02*
X0133333Y0266400D01*
X0143333Y0296400D01*
X0143333Y0441400D01*
X0113333Y0441400D01*
X0113333Y0296400D01*
X0123333Y0266400D01*
X0133333Y0266400D01*
X0123333Y0266400D01*
X0113333Y0296400D01*
X0113333Y0441400D01*
X0143333Y0441400D01*
X0143333Y0296400D01*
X0133333Y0266400D01*
X0133666Y0267399D02*
X0123000Y0267399D01*
X0122668Y0268397D02*
X0133999Y0268397D01*
X0134332Y0269396D02*
X0122335Y0269396D01*
X0122002Y0270394D02*
X0134665Y0270394D01*
X0134998Y0271393D02*
X0121669Y0271393D01*
X0121336Y0272391D02*
X0135330Y0272391D01*
X0135663Y0273390D02*
X0121003Y0273390D01*
X0120671Y0274388D02*
X0135996Y0274388D01*
X0136329Y0275387D02*
X0120338Y0275387D01*
X0120005Y0276385D02*
X0136662Y0276385D01*
X0136995Y0277384D02*
X0119672Y0277384D01*
X0119339Y0278382D02*
X0137327Y0278382D01*
X0137660Y0279381D02*
X0119006Y0279381D01*
X0118674Y0280379D02*
X0137993Y0280379D01*
X0138326Y0281378D02*
X0118341Y0281378D01*
X0118008Y0282376D02*
X0138659Y0282376D01*
X0138992Y0283375D02*
X0117675Y0283375D01*
X0117342Y0284373D02*
X0139324Y0284373D01*
X0139657Y0285372D02*
X0117009Y0285372D01*
X0116677Y0286370D02*
X0139990Y0286370D01*
X0140323Y0287369D02*
X0116344Y0287369D01*
X0116011Y0288367D02*
X0140656Y0288367D01*
X0140989Y0289366D02*
X0115678Y0289366D01*
X0115345Y0290364D02*
X0141321Y0290364D01*
X0141654Y0291363D02*
X0115012Y0291363D01*
X0114680Y0292361D02*
X0141987Y0292361D01*
X0142320Y0293360D02*
X0114347Y0293360D01*
X0114014Y0294358D02*
X0142653Y0294358D01*
X0142986Y0295357D02*
X0113681Y0295357D01*
X0113348Y0296355D02*
X0143318Y0296355D01*
X0143333Y0297354D02*
X0113333Y0297354D01*
X0113333Y0298352D02*
X0143333Y0298352D01*
X0143333Y0299351D02*
X0113333Y0299351D01*
X0113333Y0300349D02*
X0143333Y0300349D01*
X0143333Y0301348D02*
X0113333Y0301348D01*
X0113333Y0302346D02*
X0143333Y0302346D01*
X0143333Y0303345D02*
X0113333Y0303345D01*
X0113333Y0304343D02*
X0143333Y0304343D01*
X0143333Y0305342D02*
X0113333Y0305342D01*
X0113333Y0306340D02*
X0143333Y0306340D01*
X0143333Y0307339D02*
X0113333Y0307339D01*
X0113333Y0308337D02*
X0143333Y0308337D01*
X0143333Y0309336D02*
X0113333Y0309336D01*
X0113333Y0310334D02*
X0143333Y0310334D01*
X0143333Y0311333D02*
X0113333Y0311333D01*
X0113333Y0312332D02*
X0143333Y0312332D01*
X0143333Y0313330D02*
X0113333Y0313330D01*
X0113333Y0314329D02*
X0143333Y0314329D01*
X0143333Y0315327D02*
X0113333Y0315327D01*
X0113333Y0316326D02*
X0143333Y0316326D01*
X0143333Y0317324D02*
X0113333Y0317324D01*
X0113333Y0318323D02*
X0143333Y0318323D01*
X0143333Y0319321D02*
X0113333Y0319321D01*
X0113333Y0320320D02*
X0143333Y0320320D01*
X0143333Y0321318D02*
X0113333Y0321318D01*
X0113333Y0322317D02*
X0143333Y0322317D01*
X0143333Y0323315D02*
X0113333Y0323315D01*
X0113333Y0324314D02*
X0143333Y0324314D01*
X0143333Y0325312D02*
X0113333Y0325312D01*
X0113333Y0326311D02*
X0143333Y0326311D01*
X0143333Y0327309D02*
X0113333Y0327309D01*
X0113333Y0328308D02*
X0143333Y0328308D01*
X0143333Y0329306D02*
X0113333Y0329306D01*
X0113333Y0330305D02*
X0143333Y0330305D01*
X0143333Y0331303D02*
X0113333Y0331303D01*
X0113333Y0332302D02*
X0143333Y0332302D01*
X0143333Y0333300D02*
X0113333Y0333300D01*
X0113333Y0334299D02*
X0143333Y0334299D01*
X0143333Y0335297D02*
X0113333Y0335297D01*
X0113333Y0336296D02*
X0143333Y0336296D01*
X0143333Y0337294D02*
X0113333Y0337294D01*
X0113333Y0338293D02*
X0143333Y0338293D01*
X0143333Y0339291D02*
X0113333Y0339291D01*
X0113333Y0340290D02*
X0143333Y0340290D01*
X0143333Y0341288D02*
X0113333Y0341288D01*
X0113333Y0342287D02*
X0143333Y0342287D01*
X0143333Y0343285D02*
X0113333Y0343285D01*
X0113333Y0344284D02*
X0143333Y0344284D01*
X0143333Y0345282D02*
X0113333Y0345282D01*
X0113333Y0346281D02*
X0143333Y0346281D01*
X0143333Y0347279D02*
X0113333Y0347279D01*
X0113333Y0348278D02*
X0143333Y0348278D01*
X0143333Y0349276D02*
X0113333Y0349276D01*
X0113333Y0350275D02*
X0143333Y0350275D01*
X0143333Y0351273D02*
X0113333Y0351273D01*
X0113333Y0352272D02*
X0143333Y0352272D01*
X0143333Y0353270D02*
X0113333Y0353270D01*
X0113333Y0354269D02*
X0143333Y0354269D01*
X0143333Y0355268D02*
X0113333Y0355268D01*
X0113333Y0356266D02*
X0143333Y0356266D01*
X0143333Y0357265D02*
X0113333Y0357265D01*
X0113333Y0358263D02*
X0143333Y0358263D01*
X0143333Y0359262D02*
X0113333Y0359262D01*
X0113333Y0360260D02*
X0143333Y0360260D01*
X0143333Y0361259D02*
X0113333Y0361259D01*
X0113333Y0362257D02*
X0143333Y0362257D01*
X0143333Y0363256D02*
X0113333Y0363256D01*
X0113333Y0364254D02*
X0143333Y0364254D01*
X0143333Y0365253D02*
X0113333Y0365253D01*
X0113333Y0366251D02*
X0143333Y0366251D01*
X0143333Y0367250D02*
X0113333Y0367250D01*
X0113333Y0368248D02*
X0143333Y0368248D01*
X0143333Y0369247D02*
X0113333Y0369247D01*
X0113333Y0370245D02*
X0143333Y0370245D01*
X0143333Y0371244D02*
X0113333Y0371244D01*
X0113333Y0372242D02*
X0143333Y0372242D01*
X0143333Y0373241D02*
X0113333Y0373241D01*
X0113333Y0374239D02*
X0143333Y0374239D01*
X0143333Y0375238D02*
X0113333Y0375238D01*
X0113333Y0376236D02*
X0143333Y0376236D01*
X0143333Y0377235D02*
X0113333Y0377235D01*
X0113333Y0378233D02*
X0143333Y0378233D01*
X0143333Y0379232D02*
X0113333Y0379232D01*
X0113333Y0380230D02*
X0143333Y0380230D01*
X0143333Y0381229D02*
X0113333Y0381229D01*
X0113333Y0382227D02*
X0143333Y0382227D01*
X0143333Y0383226D02*
X0113333Y0383226D01*
X0113333Y0384224D02*
X0143333Y0384224D01*
X0143333Y0385223D02*
X0113333Y0385223D01*
X0113333Y0386221D02*
X0143333Y0386221D01*
X0143333Y0387220D02*
X0113333Y0387220D01*
X0113333Y0388218D02*
X0143333Y0388218D01*
X0143333Y0389217D02*
X0113333Y0389217D01*
X0113333Y0390215D02*
X0143333Y0390215D01*
X0143333Y0391214D02*
X0113333Y0391214D01*
X0113333Y0392212D02*
X0143333Y0392212D01*
X0143333Y0393211D02*
X0113333Y0393211D01*
X0113333Y0394209D02*
X0143333Y0394209D01*
X0143333Y0395208D02*
X0113333Y0395208D01*
X0113333Y0396206D02*
X0143333Y0396206D01*
X0143333Y0397205D02*
X0113333Y0397205D01*
X0113333Y0398203D02*
X0143333Y0398203D01*
X0143333Y0399202D02*
X0113333Y0399202D01*
X0113333Y0400201D02*
X0143333Y0400201D01*
X0143333Y0401199D02*
X0113333Y0401199D01*
X0113333Y0402198D02*
X0143333Y0402198D01*
X0143333Y0403196D02*
X0113333Y0403196D01*
X0113333Y0404195D02*
X0143333Y0404195D01*
X0143333Y0405193D02*
X0113333Y0405193D01*
X0113333Y0406192D02*
X0143333Y0406192D01*
X0143333Y0407190D02*
X0113333Y0407190D01*
X0113333Y0408189D02*
X0143333Y0408189D01*
X0143333Y0409187D02*
X0113333Y0409187D01*
X0113333Y0410186D02*
X0143333Y0410186D01*
X0143333Y0411184D02*
X0113333Y0411184D01*
X0113333Y0412183D02*
X0143333Y0412183D01*
X0143333Y0413181D02*
X0113333Y0413181D01*
X0113333Y0414180D02*
X0143333Y0414180D01*
X0143333Y0415178D02*
X0113333Y0415178D01*
X0113333Y0416177D02*
X0143333Y0416177D01*
X0143333Y0417175D02*
X0113333Y0417175D01*
X0113333Y0418174D02*
X0143333Y0418174D01*
X0143333Y0419172D02*
X0113333Y0419172D01*
X0113333Y0420171D02*
X0143333Y0420171D01*
X0143333Y0421169D02*
X0113333Y0421169D01*
X0113333Y0422168D02*
X0143333Y0422168D01*
X0143333Y0423166D02*
X0113333Y0423166D01*
X0113333Y0424165D02*
X0143333Y0424165D01*
X0143333Y0425163D02*
X0113333Y0425163D01*
X0113333Y0426162D02*
X0143333Y0426162D01*
X0143333Y0427160D02*
X0113333Y0427160D01*
X0113333Y0428159D02*
X0143333Y0428159D01*
X0143333Y0429157D02*
X0113333Y0429157D01*
X0113333Y0430156D02*
X0143333Y0430156D01*
X0143333Y0431154D02*
X0113333Y0431154D01*
X0113333Y0432153D02*
X0143333Y0432153D01*
X0143333Y0433151D02*
X0113333Y0433151D01*
X0113333Y0434150D02*
X0143333Y0434150D01*
X0143333Y0435148D02*
X0113333Y0435148D01*
X0113333Y0436147D02*
X0143333Y0436147D01*
X0143333Y0437145D02*
X0113333Y0437145D01*
X0113333Y0438144D02*
X0143333Y0438144D01*
X0143333Y0439142D02*
X0113333Y0439142D01*
X0113333Y0440141D02*
X0143333Y0440141D01*
X0143333Y0441139D02*
X0113333Y0441139D01*
X0112933Y0459000D02*
X0128333Y0459000D01*
X0130007Y0459205D01*
X0131633Y0459647D01*
X0133181Y0460316D01*
X0134618Y0461198D01*
X0135914Y0462275D01*
X0137044Y0463526D01*
X0137985Y0464925D01*
X0138716Y0466444D01*
X0139224Y0468051D01*
X0139499Y0469715D01*
X0139533Y0471400D01*
X0139580Y0473000D01*
X0139399Y0474590D01*
X0138995Y0476139D01*
X0138376Y0477615D01*
X0137554Y0478988D01*
X0136547Y0480232D01*
X0135373Y0481320D01*
X0134057Y0482231D01*
X0132626Y0482947D01*
X0131107Y0483453D01*
X0129533Y0483740D01*
X0127933Y0483800D01*
X0112933Y0483800D01*
X0112933Y0459000D01*
X0112933Y0459113D02*
X0129251Y0459113D01*
X0132708Y0460111D02*
X0112933Y0460111D01*
X0112933Y0461110D02*
X0134475Y0461110D01*
X0135713Y0462108D02*
X0112933Y0462108D01*
X0112933Y0463107D02*
X0136665Y0463107D01*
X0137433Y0464105D02*
X0112933Y0464105D01*
X0112933Y0465104D02*
X0138071Y0465104D01*
X0138552Y0466102D02*
X0112933Y0466102D01*
X0112933Y0467101D02*
X0138924Y0467101D01*
X0139232Y0468099D02*
X0112933Y0468099D01*
X0112933Y0469098D02*
X0139397Y0469098D01*
X0139506Y0470096D02*
X0112933Y0470096D01*
X0112933Y0471095D02*
X0139527Y0471095D01*
X0139553Y0472093D02*
X0112933Y0472093D01*
X0112933Y0473092D02*
X0139569Y0473092D01*
X0139456Y0474090D02*
X0112933Y0474090D01*
X0112933Y0475089D02*
X0139269Y0475089D01*
X0139008Y0476087D02*
X0112933Y0476087D01*
X0112933Y0477086D02*
X0138598Y0477086D01*
X0138095Y0478084D02*
X0112933Y0478084D01*
X0112933Y0479083D02*
X0137478Y0479083D01*
X0136669Y0480081D02*
X0112933Y0480081D01*
X0112933Y0481080D02*
X0135632Y0481080D01*
X0134278Y0482078D02*
X0112933Y0482078D01*
X0112933Y0483077D02*
X0132237Y0483077D01*
X0146580Y0488100D02*
X0146139Y0489727D01*
X0145933Y0491400D01*
X0145933Y0506800D01*
X0170733Y0506800D01*
X0170733Y0491800D01*
X0170673Y0490201D01*
X0170387Y0488626D01*
X0169881Y0487107D01*
X0169165Y0485676D01*
X0168253Y0484360D01*
X0167165Y0483187D01*
X0165922Y0482179D01*
X0164548Y0481357D01*
X0163072Y0480738D01*
X0161523Y0480334D01*
X0159933Y0480154D01*
X0158333Y0480200D01*
X0156648Y0480235D01*
X0154985Y0480509D01*
X0153377Y0481017D01*
X0151859Y0481749D01*
X0150459Y0482689D01*
X0149208Y0483819D01*
X0148131Y0485116D01*
X0147249Y0486552D01*
X0146580Y0488100D01*
X0146593Y0488070D02*
X0170201Y0488070D01*
X0170467Y0489068D02*
X0146318Y0489068D01*
X0146097Y0490067D02*
X0170649Y0490067D01*
X0170706Y0491065D02*
X0145974Y0491065D01*
X0145933Y0492064D02*
X0170733Y0492064D01*
X0170733Y0493062D02*
X0145933Y0493062D01*
X0145933Y0494061D02*
X0170733Y0494061D01*
X0170733Y0495059D02*
X0145933Y0495059D01*
X0145933Y0496058D02*
X0170733Y0496058D01*
X0170733Y0497056D02*
X0145933Y0497056D01*
X0145933Y0498055D02*
X0170733Y0498055D01*
X0170733Y0499053D02*
X0145933Y0499053D01*
X0145933Y0500052D02*
X0170733Y0500052D01*
X0170733Y0501050D02*
X0145933Y0501050D01*
X0145933Y0502049D02*
X0170733Y0502049D01*
X0170733Y0503047D02*
X0145933Y0503047D01*
X0145933Y0504046D02*
X0170733Y0504046D01*
X0170733Y0505044D02*
X0145933Y0505044D01*
X0145933Y0506043D02*
X0170733Y0506043D01*
X0169862Y0487071D02*
X0147025Y0487071D01*
X0147544Y0486072D02*
X0169363Y0486072D01*
X0168748Y0485074D02*
X0148166Y0485074D01*
X0148995Y0484075D02*
X0167989Y0484075D01*
X0167030Y0483077D02*
X0150030Y0483077D01*
X0151368Y0482078D02*
X0165754Y0482078D01*
X0163887Y0481080D02*
X0153247Y0481080D01*
X0177442Y0474749D02*
X0177950Y0476356D01*
X0178682Y0477875D01*
X0179623Y0479274D01*
X0180753Y0480525D01*
X0182049Y0481602D01*
X0183486Y0482484D01*
X0185033Y0483153D01*
X0186660Y0483595D01*
X0188333Y0483800D01*
X0203733Y0483800D01*
X0203733Y0459000D01*
X0188733Y0459000D01*
X0187134Y0459060D01*
X0185559Y0459347D01*
X0184041Y0459853D01*
X0182609Y0460569D01*
X0181294Y0461480D01*
X0180120Y0462568D01*
X0179112Y0463812D01*
X0178291Y0465185D01*
X0177672Y0466661D01*
X0177268Y0468210D01*
X0177087Y0469800D01*
X0177133Y0471400D01*
X0177168Y0473085D01*
X0177442Y0474749D01*
X0177550Y0475089D02*
X0203733Y0475089D01*
X0203733Y0476087D02*
X0177865Y0476087D01*
X0178302Y0477086D02*
X0203733Y0477086D01*
X0203733Y0478084D02*
X0178823Y0478084D01*
X0179494Y0479083D02*
X0203733Y0479083D01*
X0203733Y0480081D02*
X0180352Y0480081D01*
X0181420Y0481080D02*
X0203733Y0481080D01*
X0203733Y0482078D02*
X0182824Y0482078D01*
X0184857Y0483077D02*
X0203733Y0483077D01*
X0203733Y0474090D02*
X0177334Y0474090D01*
X0177169Y0473092D02*
X0203733Y0473092D01*
X0203733Y0472093D02*
X0177148Y0472093D01*
X0177125Y0471095D02*
X0203733Y0471095D01*
X0203733Y0470096D02*
X0177096Y0470096D01*
X0177167Y0469098D02*
X0203733Y0469098D01*
X0203733Y0468099D02*
X0177297Y0468099D01*
X0177557Y0467101D02*
X0203733Y0467101D01*
X0203733Y0466102D02*
X0177906Y0466102D01*
X0178339Y0465104D02*
X0203733Y0465104D01*
X0203733Y0464105D02*
X0178937Y0464105D01*
X0179683Y0463107D02*
X0203733Y0463107D01*
X0203733Y0462108D02*
X0180616Y0462108D01*
X0181828Y0461110D02*
X0203733Y0461110D01*
X0203733Y0460111D02*
X0183524Y0460111D01*
X0186846Y0459113D02*
X0203733Y0459113D01*
X0203333Y0441400D02*
X0173333Y0441400D01*
X0173333Y0296400D01*
X0183333Y0266400D01*
X0193333Y0266400D01*
X0203333Y0296400D01*
X0203333Y0441400D01*
X0173333Y0441400D01*
X0173333Y0296400D01*
X0183333Y0266400D01*
X0193333Y0266400D01*
X0203333Y0296400D01*
X0203333Y0441400D01*
X0203333Y0441139D02*
X0173333Y0441139D01*
X0173333Y0440141D02*
X0203333Y0440141D01*
X0203333Y0439142D02*
X0173333Y0439142D01*
X0173333Y0438144D02*
X0203333Y0438144D01*
X0203333Y0437145D02*
X0173333Y0437145D01*
X0173333Y0436147D02*
X0203333Y0436147D01*
X0203333Y0435148D02*
X0173333Y0435148D01*
X0173333Y0434150D02*
X0203333Y0434150D01*
X0203333Y0433151D02*
X0173333Y0433151D01*
X0173333Y0432153D02*
X0203333Y0432153D01*
X0203333Y0431154D02*
X0173333Y0431154D01*
X0173333Y0430156D02*
X0203333Y0430156D01*
X0203333Y0429157D02*
X0173333Y0429157D01*
X0173333Y0428159D02*
X0203333Y0428159D01*
X0203333Y0427160D02*
X0173333Y0427160D01*
X0173333Y0426162D02*
X0203333Y0426162D01*
X0203333Y0425163D02*
X0173333Y0425163D01*
X0173333Y0424165D02*
X0203333Y0424165D01*
X0203333Y0423166D02*
X0173333Y0423166D01*
X0173333Y0422168D02*
X0203333Y0422168D01*
X0203333Y0421169D02*
X0173333Y0421169D01*
X0173333Y0420171D02*
X0203333Y0420171D01*
X0203333Y0419172D02*
X0173333Y0419172D01*
X0173333Y0418174D02*
X0203333Y0418174D01*
X0203333Y0417175D02*
X0173333Y0417175D01*
X0173333Y0416177D02*
X0203333Y0416177D01*
X0203333Y0415178D02*
X0173333Y0415178D01*
X0173333Y0414180D02*
X0203333Y0414180D01*
X0203333Y0413181D02*
X0173333Y0413181D01*
X0173333Y0412183D02*
X0203333Y0412183D01*
X0203333Y0411184D02*
X0173333Y0411184D01*
X0173333Y0410186D02*
X0203333Y0410186D01*
X0203333Y0409187D02*
X0173333Y0409187D01*
X0173333Y0408189D02*
X0203333Y0408189D01*
X0203333Y0407190D02*
X0173333Y0407190D01*
X0173333Y0406192D02*
X0203333Y0406192D01*
X0203333Y0405193D02*
X0173333Y0405193D01*
X0173333Y0404195D02*
X0203333Y0404195D01*
X0203333Y0403196D02*
X0173333Y0403196D01*
X0173333Y0402198D02*
X0203333Y0402198D01*
X0203333Y0401199D02*
X0173333Y0401199D01*
X0173333Y0400201D02*
X0203333Y0400201D01*
X0203333Y0399202D02*
X0173333Y0399202D01*
X0173333Y0398203D02*
X0203333Y0398203D01*
X0203333Y0397205D02*
X0173333Y0397205D01*
X0173333Y0396206D02*
X0203333Y0396206D01*
X0203333Y0395208D02*
X0173333Y0395208D01*
X0173333Y0394209D02*
X0203333Y0394209D01*
X0203333Y0393211D02*
X0173333Y0393211D01*
X0173333Y0392212D02*
X0203333Y0392212D01*
X0203333Y0391214D02*
X0173333Y0391214D01*
X0173333Y0390215D02*
X0203333Y0390215D01*
X0203333Y0389217D02*
X0173333Y0389217D01*
X0173333Y0388218D02*
X0203333Y0388218D01*
X0203333Y0387220D02*
X0173333Y0387220D01*
X0173333Y0386221D02*
X0203333Y0386221D01*
X0203333Y0385223D02*
X0173333Y0385223D01*
X0173333Y0384224D02*
X0203333Y0384224D01*
X0203333Y0383226D02*
X0173333Y0383226D01*
X0173333Y0382227D02*
X0203333Y0382227D01*
X0203333Y0381229D02*
X0173333Y0381229D01*
X0173333Y0380230D02*
X0203333Y0380230D01*
X0203333Y0379232D02*
X0173333Y0379232D01*
X0173333Y0378233D02*
X0203333Y0378233D01*
X0203333Y0377235D02*
X0173333Y0377235D01*
X0173333Y0376236D02*
X0203333Y0376236D01*
X0203333Y0375238D02*
X0173333Y0375238D01*
X0173333Y0374239D02*
X0203333Y0374239D01*
X0203333Y0373241D02*
X0173333Y0373241D01*
X0173333Y0372242D02*
X0203333Y0372242D01*
X0203333Y0371244D02*
X0173333Y0371244D01*
X0173333Y0370245D02*
X0203333Y0370245D01*
X0203333Y0369247D02*
X0173333Y0369247D01*
X0173333Y0368248D02*
X0203333Y0368248D01*
X0203333Y0367250D02*
X0173333Y0367250D01*
X0173333Y0366251D02*
X0203333Y0366251D01*
X0203333Y0365253D02*
X0173333Y0365253D01*
X0173333Y0364254D02*
X0203333Y0364254D01*
X0203333Y0363256D02*
X0173333Y0363256D01*
X0173333Y0362257D02*
X0203333Y0362257D01*
X0203333Y0361259D02*
X0173333Y0361259D01*
X0173333Y0360260D02*
X0203333Y0360260D01*
X0203333Y0359262D02*
X0173333Y0359262D01*
X0173333Y0358263D02*
X0203333Y0358263D01*
X0203333Y0357265D02*
X0173333Y0357265D01*
X0173333Y0356266D02*
X0203333Y0356266D01*
X0203333Y0355268D02*
X0173333Y0355268D01*
X0173333Y0354269D02*
X0203333Y0354269D01*
X0203333Y0353270D02*
X0173333Y0353270D01*
X0173333Y0352272D02*
X0203333Y0352272D01*
X0203333Y0351273D02*
X0173333Y0351273D01*
X0173333Y0350275D02*
X0203333Y0350275D01*
X0203333Y0349276D02*
X0173333Y0349276D01*
X0173333Y0348278D02*
X0203333Y0348278D01*
X0203333Y0347279D02*
X0173333Y0347279D01*
X0173333Y0346281D02*
X0203333Y0346281D01*
X0203333Y0345282D02*
X0173333Y0345282D01*
X0173333Y0344284D02*
X0203333Y0344284D01*
X0203333Y0343285D02*
X0173333Y0343285D01*
X0173333Y0342287D02*
X0203333Y0342287D01*
X0203333Y0341288D02*
X0173333Y0341288D01*
X0173333Y0340290D02*
X0203333Y0340290D01*
X0203333Y0339291D02*
X0173333Y0339291D01*
X0173333Y0338293D02*
X0203333Y0338293D01*
X0203333Y0337294D02*
X0173333Y0337294D01*
X0173333Y0336296D02*
X0203333Y0336296D01*
X0203333Y0335297D02*
X0173333Y0335297D01*
X0173333Y0334299D02*
X0203333Y0334299D01*
X0203333Y0333300D02*
X0173333Y0333300D01*
X0173333Y0332302D02*
X0203333Y0332302D01*
X0203333Y0331303D02*
X0173333Y0331303D01*
X0173333Y0330305D02*
X0203333Y0330305D01*
X0203333Y0329306D02*
X0173333Y0329306D01*
X0173333Y0328308D02*
X0203333Y0328308D01*
X0203333Y0327309D02*
X0173333Y0327309D01*
X0173333Y0326311D02*
X0203333Y0326311D01*
X0203333Y0325312D02*
X0173333Y0325312D01*
X0173333Y0324314D02*
X0203333Y0324314D01*
X0203333Y0323315D02*
X0173333Y0323315D01*
X0173333Y0322317D02*
X0203333Y0322317D01*
X0203333Y0321318D02*
X0173333Y0321318D01*
X0173333Y0320320D02*
X0203333Y0320320D01*
X0203333Y0319321D02*
X0173333Y0319321D01*
X0173333Y0318323D02*
X0203333Y0318323D01*
X0203333Y0317324D02*
X0173333Y0317324D01*
X0173333Y0316326D02*
X0203333Y0316326D01*
X0203333Y0315327D02*
X0173333Y0315327D01*
X0173333Y0314329D02*
X0203333Y0314329D01*
X0203333Y0313330D02*
X0173333Y0313330D01*
X0173333Y0312332D02*
X0203333Y0312332D01*
X0203333Y0311333D02*
X0173333Y0311333D01*
X0173333Y0310334D02*
X0203333Y0310334D01*
X0203333Y0309336D02*
X0173333Y0309336D01*
X0173333Y0308337D02*
X0203333Y0308337D01*
X0203333Y0307339D02*
X0173333Y0307339D01*
X0173333Y0306340D02*
X0203333Y0306340D01*
X0203333Y0305342D02*
X0173333Y0305342D01*
X0173333Y0304343D02*
X0203333Y0304343D01*
X0203333Y0303345D02*
X0173333Y0303345D01*
X0173333Y0302346D02*
X0203333Y0302346D01*
X0203333Y0301348D02*
X0173333Y0301348D01*
X0173333Y0300349D02*
X0203333Y0300349D01*
X0203333Y0299351D02*
X0173333Y0299351D01*
X0173333Y0298352D02*
X0203333Y0298352D01*
X0203333Y0297354D02*
X0173333Y0297354D01*
X0173348Y0296355D02*
X0203318Y0296355D01*
X0202986Y0295357D02*
X0173681Y0295357D01*
X0174014Y0294358D02*
X0202653Y0294358D01*
X0202320Y0293360D02*
X0174347Y0293360D01*
X0174680Y0292361D02*
X0201987Y0292361D01*
X0201654Y0291363D02*
X0175012Y0291363D01*
X0175345Y0290364D02*
X0201321Y0290364D01*
X0200989Y0289366D02*
X0175678Y0289366D01*
X0176011Y0288367D02*
X0200656Y0288367D01*
X0200323Y0287369D02*
X0176344Y0287369D01*
X0176677Y0286370D02*
X0199990Y0286370D01*
X0199657Y0285372D02*
X0177009Y0285372D01*
X0177342Y0284373D02*
X0199324Y0284373D01*
X0198992Y0283375D02*
X0177675Y0283375D01*
X0178008Y0282376D02*
X0198659Y0282376D01*
X0198326Y0281378D02*
X0178341Y0281378D01*
X0178674Y0280379D02*
X0197993Y0280379D01*
X0197660Y0279381D02*
X0179006Y0279381D01*
X0179339Y0278382D02*
X0197327Y0278382D01*
X0196995Y0277384D02*
X0179672Y0277384D01*
X0180005Y0276385D02*
X0196662Y0276385D01*
X0196329Y0275387D02*
X0180338Y0275387D01*
X0180671Y0274388D02*
X0195996Y0274388D01*
X0195663Y0273390D02*
X0181003Y0273390D01*
X0181336Y0272391D02*
X0195330Y0272391D01*
X0194998Y0271393D02*
X0181669Y0271393D01*
X0182002Y0270394D02*
X0194665Y0270394D01*
X0194332Y0269396D02*
X0182335Y0269396D01*
X0182668Y0268397D02*
X0193999Y0268397D01*
X0193666Y0267399D02*
X0183000Y0267399D01*
X0183333Y0266400D02*
X0193333Y0266400D01*
D11*
X0162073Y0457463D03*
X0154593Y0457463D03*
X0158333Y0465731D03*
D12*
X0148333Y0464746D03*
X0148333Y0458054D03*
X0168333Y0458054D03*
X0168333Y0464746D03*
D13*
X0193333Y0496400D03*
X0123333Y0496400D03*
D14*
X0118333Y0446400D03*
X0198333Y0487400D03*
D15*
X0189333Y0471400D03*
X0158333Y0492400D03*
X0127333Y0471400D03*
D16*
X0158306Y0471400D03*
X0167361Y0471400D03*
M02*
