G75*
%MOIN*%
%OFA0B0*%
%FSLAX25Y25*%
%IPPOS*%
%LPD*%
%AMOC8*
5,1,8,0,0,1.08239X$1,22.5*
%
%ADD10C,0.01000*%
%ADD11C,0.13800*%
%ADD12C,0.20800*%
%ADD13C,0.04737*%
D10*
X0123333Y0266400D02*
X0133333Y0266400D01*
X0143333Y0296400D01*
X0143333Y0441400D01*
X0113333Y0441400D01*
X0113333Y0296400D01*
X0123333Y0266400D01*
X0133333Y0266400D01*
X0143333Y0296400D01*
X0143333Y0441400D01*
X0113333Y0441400D01*
X0113333Y0296400D01*
X0123333Y0266400D01*
X0133333Y0266400D01*
X0133666Y0267399D02*
X0123000Y0267399D01*
X0122668Y0268397D02*
X0133999Y0268397D01*
X0134332Y0269396D02*
X0122335Y0269396D01*
X0122002Y0270394D02*
X0134665Y0270394D01*
X0134998Y0271393D02*
X0121669Y0271393D01*
X0121336Y0272391D02*
X0135330Y0272391D01*
X0135663Y0273390D02*
X0121003Y0273390D01*
X0120671Y0274388D02*
X0135996Y0274388D01*
X0136329Y0275387D02*
X0120338Y0275387D01*
X0120005Y0276385D02*
X0136662Y0276385D01*
X0136995Y0277384D02*
X0119672Y0277384D01*
X0119339Y0278382D02*
X0137327Y0278382D01*
X0137660Y0279381D02*
X0119006Y0279381D01*
X0118674Y0280379D02*
X0137993Y0280379D01*
X0138326Y0281378D02*
X0118341Y0281378D01*
X0118008Y0282376D02*
X0138659Y0282376D01*
X0138992Y0283375D02*
X0117675Y0283375D01*
X0117342Y0284373D02*
X0139324Y0284373D01*
X0139657Y0285372D02*
X0117009Y0285372D01*
X0116677Y0286370D02*
X0139990Y0286370D01*
X0140323Y0287369D02*
X0116344Y0287369D01*
X0116011Y0288367D02*
X0140656Y0288367D01*
X0140989Y0289366D02*
X0115678Y0289366D01*
X0115345Y0290364D02*
X0141321Y0290364D01*
X0141654Y0291363D02*
X0115012Y0291363D01*
X0114680Y0292361D02*
X0141987Y0292361D01*
X0142320Y0293360D02*
X0114347Y0293360D01*
X0114014Y0294358D02*
X0142653Y0294358D01*
X0142986Y0295357D02*
X0113681Y0295357D01*
X0113348Y0296355D02*
X0143318Y0296355D01*
X0143333Y0297354D02*
X0113333Y0297354D01*
X0113333Y0298352D02*
X0143333Y0298352D01*
X0143333Y0299351D02*
X0113333Y0299351D01*
X0113333Y0300349D02*
X0143333Y0300349D01*
X0143333Y0301348D02*
X0113333Y0301348D01*
X0113333Y0302346D02*
X0143333Y0302346D01*
X0143333Y0303345D02*
X0113333Y0303345D01*
X0113333Y0304343D02*
X0143333Y0304343D01*
X0143333Y0305342D02*
X0113333Y0305342D01*
X0113333Y0306340D02*
X0143333Y0306340D01*
X0143333Y0307339D02*
X0113333Y0307339D01*
X0113333Y0308337D02*
X0143333Y0308337D01*
X0143333Y0309336D02*
X0113333Y0309336D01*
X0113333Y0310334D02*
X0143333Y0310334D01*
X0143333Y0311333D02*
X0113333Y0311333D01*
X0113333Y0312332D02*
X0143333Y0312332D01*
X0143333Y0313330D02*
X0113333Y0313330D01*
X0113333Y0314329D02*
X0143333Y0314329D01*
X0143333Y0315327D02*
X0113333Y0315327D01*
X0113333Y0316326D02*
X0143333Y0316326D01*
X0143333Y0317324D02*
X0113333Y0317324D01*
X0113333Y0318323D02*
X0143333Y0318323D01*
X0143333Y0319321D02*
X0113333Y0319321D01*
X0113333Y0320320D02*
X0143333Y0320320D01*
X0143333Y0321318D02*
X0113333Y0321318D01*
X0113333Y0322317D02*
X0143333Y0322317D01*
X0143333Y0323315D02*
X0113333Y0323315D01*
X0113333Y0324314D02*
X0143333Y0324314D01*
X0143333Y0325312D02*
X0113333Y0325312D01*
X0113333Y0326311D02*
X0143333Y0326311D01*
X0143333Y0327309D02*
X0113333Y0327309D01*
X0113333Y0328308D02*
X0143333Y0328308D01*
X0143333Y0329306D02*
X0113333Y0329306D01*
X0113333Y0330305D02*
X0143333Y0330305D01*
X0143333Y0331303D02*
X0113333Y0331303D01*
X0113333Y0332302D02*
X0143333Y0332302D01*
X0143333Y0333300D02*
X0113333Y0333300D01*
X0113333Y0334299D02*
X0143333Y0334299D01*
X0143333Y0335297D02*
X0113333Y0335297D01*
X0113333Y0336296D02*
X0143333Y0336296D01*
X0143333Y0337294D02*
X0113333Y0337294D01*
X0113333Y0338293D02*
X0143333Y0338293D01*
X0143333Y0339291D02*
X0113333Y0339291D01*
X0113333Y0340290D02*
X0143333Y0340290D01*
X0143333Y0341288D02*
X0113333Y0341288D01*
X0113333Y0342287D02*
X0143333Y0342287D01*
X0143333Y0343285D02*
X0113333Y0343285D01*
X0113333Y0344284D02*
X0143333Y0344284D01*
X0143333Y0345282D02*
X0113333Y0345282D01*
X0113333Y0346281D02*
X0143333Y0346281D01*
X0143333Y0347279D02*
X0113333Y0347279D01*
X0113333Y0348278D02*
X0143333Y0348278D01*
X0143333Y0349276D02*
X0113333Y0349276D01*
X0113333Y0350275D02*
X0143333Y0350275D01*
X0143333Y0351273D02*
X0113333Y0351273D01*
X0113333Y0352272D02*
X0143333Y0352272D01*
X0143333Y0353270D02*
X0113333Y0353270D01*
X0113333Y0354269D02*
X0143333Y0354269D01*
X0143333Y0355268D02*
X0113333Y0355268D01*
X0113333Y0356266D02*
X0143333Y0356266D01*
X0143333Y0357265D02*
X0113333Y0357265D01*
X0113333Y0358263D02*
X0143333Y0358263D01*
X0143333Y0359262D02*
X0113333Y0359262D01*
X0113333Y0360260D02*
X0143333Y0360260D01*
X0143333Y0361259D02*
X0113333Y0361259D01*
X0113333Y0362257D02*
X0143333Y0362257D01*
X0143333Y0363256D02*
X0113333Y0363256D01*
X0113333Y0364254D02*
X0143333Y0364254D01*
X0143333Y0365253D02*
X0113333Y0365253D01*
X0113333Y0366251D02*
X0143333Y0366251D01*
X0143333Y0367250D02*
X0113333Y0367250D01*
X0113333Y0368248D02*
X0143333Y0368248D01*
X0143333Y0369247D02*
X0113333Y0369247D01*
X0113333Y0370245D02*
X0143333Y0370245D01*
X0143333Y0371244D02*
X0113333Y0371244D01*
X0113333Y0372242D02*
X0143333Y0372242D01*
X0143333Y0373241D02*
X0113333Y0373241D01*
X0113333Y0374239D02*
X0143333Y0374239D01*
X0143333Y0375238D02*
X0113333Y0375238D01*
X0113333Y0376236D02*
X0143333Y0376236D01*
X0143333Y0377235D02*
X0113333Y0377235D01*
X0113333Y0378233D02*
X0143333Y0378233D01*
X0143333Y0379232D02*
X0113333Y0379232D01*
X0113333Y0380230D02*
X0143333Y0380230D01*
X0143333Y0381229D02*
X0113333Y0381229D01*
X0113333Y0382227D02*
X0143333Y0382227D01*
X0143333Y0383226D02*
X0113333Y0383226D01*
X0113333Y0384224D02*
X0143333Y0384224D01*
X0143333Y0385223D02*
X0113333Y0385223D01*
X0113333Y0386221D02*
X0143333Y0386221D01*
X0143333Y0387220D02*
X0113333Y0387220D01*
X0113333Y0388218D02*
X0143333Y0388218D01*
X0143333Y0389217D02*
X0113333Y0389217D01*
X0113333Y0390215D02*
X0143333Y0390215D01*
X0143333Y0391214D02*
X0113333Y0391214D01*
X0113333Y0392212D02*
X0143333Y0392212D01*
X0143333Y0393211D02*
X0113333Y0393211D01*
X0113333Y0394209D02*
X0143333Y0394209D01*
X0143333Y0395208D02*
X0113333Y0395208D01*
X0113333Y0396206D02*
X0143333Y0396206D01*
X0143333Y0397205D02*
X0113333Y0397205D01*
X0113333Y0398203D02*
X0143333Y0398203D01*
X0143333Y0399202D02*
X0113333Y0399202D01*
X0113333Y0400201D02*
X0143333Y0400201D01*
X0143333Y0401199D02*
X0113333Y0401199D01*
X0113333Y0402198D02*
X0143333Y0402198D01*
X0143333Y0403196D02*
X0113333Y0403196D01*
X0113333Y0404195D02*
X0143333Y0404195D01*
X0143333Y0405193D02*
X0113333Y0405193D01*
X0113333Y0406192D02*
X0143333Y0406192D01*
X0143333Y0407190D02*
X0113333Y0407190D01*
X0113333Y0408189D02*
X0143333Y0408189D01*
X0143333Y0409187D02*
X0113333Y0409187D01*
X0113333Y0410186D02*
X0143333Y0410186D01*
X0143333Y0411184D02*
X0113333Y0411184D01*
X0113333Y0412183D02*
X0143333Y0412183D01*
X0143333Y0413181D02*
X0113333Y0413181D01*
X0113333Y0414180D02*
X0143333Y0414180D01*
X0143333Y0415178D02*
X0113333Y0415178D01*
X0113333Y0416177D02*
X0143333Y0416177D01*
X0143333Y0417175D02*
X0113333Y0417175D01*
X0113333Y0418174D02*
X0143333Y0418174D01*
X0143333Y0419172D02*
X0113333Y0419172D01*
X0113333Y0420171D02*
X0143333Y0420171D01*
X0143333Y0421169D02*
X0113333Y0421169D01*
X0113333Y0422168D02*
X0143333Y0422168D01*
X0143333Y0423166D02*
X0113333Y0423166D01*
X0113333Y0424165D02*
X0143333Y0424165D01*
X0143333Y0425163D02*
X0113333Y0425163D01*
X0113333Y0426162D02*
X0143333Y0426162D01*
X0143333Y0427160D02*
X0113333Y0427160D01*
X0113333Y0428159D02*
X0143333Y0428159D01*
X0143333Y0429157D02*
X0113333Y0429157D01*
X0113333Y0430156D02*
X0143333Y0430156D01*
X0143333Y0431154D02*
X0113333Y0431154D01*
X0113333Y0432153D02*
X0143333Y0432153D01*
X0143333Y0433151D02*
X0113333Y0433151D01*
X0113333Y0434150D02*
X0143333Y0434150D01*
X0143333Y0435148D02*
X0113333Y0435148D01*
X0113333Y0436147D02*
X0143333Y0436147D01*
X0143333Y0437145D02*
X0113333Y0437145D01*
X0113333Y0438144D02*
X0143333Y0438144D01*
X0143333Y0439142D02*
X0113333Y0439142D01*
X0113333Y0440141D02*
X0143333Y0440141D01*
X0143333Y0441139D02*
X0113333Y0441139D01*
X0113133Y0458900D02*
X0128533Y0458900D01*
X0130207Y0459105D01*
X0131833Y0459547D01*
X0133381Y0460216D01*
X0134818Y0461098D01*
X0136114Y0462175D01*
X0137244Y0463426D01*
X0138185Y0464825D01*
X0138916Y0466344D01*
X0139424Y0467951D01*
X0139699Y0469615D01*
X0139733Y0471300D01*
X0139780Y0472900D01*
X0139599Y0474490D01*
X0139195Y0476039D01*
X0138576Y0477515D01*
X0137754Y0478888D01*
X0136747Y0480132D01*
X0135573Y0481220D01*
X0134257Y0482131D01*
X0132826Y0482847D01*
X0131307Y0483353D01*
X0129733Y0483640D01*
X0128133Y0483700D01*
X0113133Y0483700D01*
X0113133Y0458900D01*
X0113133Y0459113D02*
X0130233Y0459113D01*
X0133139Y0460111D02*
X0113133Y0460111D01*
X0113133Y0461110D02*
X0134832Y0461110D01*
X0136034Y0462108D02*
X0113133Y0462108D01*
X0113133Y0463107D02*
X0136956Y0463107D01*
X0137701Y0464105D02*
X0113133Y0464105D01*
X0113133Y0465104D02*
X0138319Y0465104D01*
X0138800Y0466102D02*
X0113133Y0466102D01*
X0113133Y0467101D02*
X0139156Y0467101D01*
X0139449Y0468099D02*
X0113133Y0468099D01*
X0113133Y0469098D02*
X0139613Y0469098D01*
X0139709Y0470096D02*
X0113133Y0470096D01*
X0113133Y0471095D02*
X0139729Y0471095D01*
X0139756Y0472093D02*
X0113133Y0472093D01*
X0113133Y0473092D02*
X0139758Y0473092D01*
X0139644Y0474090D02*
X0113133Y0474090D01*
X0113133Y0475089D02*
X0139443Y0475089D01*
X0139175Y0476087D02*
X0113133Y0476087D01*
X0113133Y0477086D02*
X0138756Y0477086D01*
X0138235Y0478084D02*
X0113133Y0478084D01*
X0113133Y0479083D02*
X0137597Y0479083D01*
X0136788Y0480081D02*
X0113133Y0480081D01*
X0113133Y0481080D02*
X0135724Y0481080D01*
X0134334Y0482078D02*
X0113133Y0482078D01*
X0113133Y0483077D02*
X0132137Y0483077D01*
X0146480Y0487900D02*
X0146039Y0489527D01*
X0145833Y0491200D01*
X0145833Y0506600D01*
X0170633Y0506600D01*
X0170633Y0491600D01*
X0170573Y0490001D01*
X0170287Y0488426D01*
X0169781Y0486907D01*
X0169065Y0485476D01*
X0168153Y0484160D01*
X0167065Y0482987D01*
X0165822Y0481979D01*
X0164448Y0481157D01*
X0162972Y0480538D01*
X0161423Y0480134D01*
X0159833Y0479954D01*
X0158233Y0480000D01*
X0156548Y0480035D01*
X0154885Y0480309D01*
X0153277Y0480817D01*
X0151759Y0481549D01*
X0150359Y0482489D01*
X0149108Y0483619D01*
X0148031Y0484916D01*
X0147149Y0486352D01*
X0146480Y0487900D01*
X0146434Y0488070D02*
X0170168Y0488070D01*
X0170403Y0489068D02*
X0146163Y0489068D01*
X0145973Y0490067D02*
X0170575Y0490067D01*
X0170613Y0491065D02*
X0145850Y0491065D01*
X0145833Y0492064D02*
X0170633Y0492064D01*
X0170633Y0493062D02*
X0145833Y0493062D01*
X0145833Y0494061D02*
X0170633Y0494061D01*
X0170633Y0495059D02*
X0145833Y0495059D01*
X0145833Y0496058D02*
X0170633Y0496058D01*
X0170633Y0497056D02*
X0145833Y0497056D01*
X0145833Y0498055D02*
X0170633Y0498055D01*
X0170633Y0499053D02*
X0145833Y0499053D01*
X0145833Y0500052D02*
X0170633Y0500052D01*
X0170633Y0501050D02*
X0145833Y0501050D01*
X0145833Y0502049D02*
X0170633Y0502049D01*
X0170633Y0503047D02*
X0145833Y0503047D01*
X0145833Y0504046D02*
X0170633Y0504046D01*
X0170633Y0505044D02*
X0145833Y0505044D01*
X0145833Y0506043D02*
X0170633Y0506043D01*
X0169835Y0487071D02*
X0146838Y0487071D01*
X0147321Y0486072D02*
X0169363Y0486072D01*
X0168786Y0485074D02*
X0147934Y0485074D01*
X0148729Y0484075D02*
X0168075Y0484075D01*
X0167149Y0483077D02*
X0149709Y0483077D01*
X0150971Y0482078D02*
X0165945Y0482078D01*
X0164264Y0481080D02*
X0152732Y0481080D01*
X0156265Y0480081D02*
X0160957Y0480081D01*
X0177242Y0474849D02*
X0177750Y0476456D01*
X0178482Y0477975D01*
X0179423Y0479374D01*
X0180553Y0480625D01*
X0181849Y0481702D01*
X0183286Y0482584D01*
X0184833Y0483253D01*
X0186460Y0483695D01*
X0188133Y0483900D01*
X0203533Y0483900D01*
X0203533Y0459100D01*
X0188533Y0459100D01*
X0186934Y0459160D01*
X0185359Y0459447D01*
X0183841Y0459953D01*
X0182409Y0460669D01*
X0181094Y0461580D01*
X0179920Y0462668D01*
X0178912Y0463912D01*
X0178091Y0465285D01*
X0177472Y0466761D01*
X0177068Y0468310D01*
X0176887Y0469900D01*
X0176933Y0471500D01*
X0176968Y0473185D01*
X0177242Y0474849D01*
X0177318Y0475089D02*
X0203533Y0475089D01*
X0203533Y0476087D02*
X0177634Y0476087D01*
X0178054Y0477086D02*
X0203533Y0477086D01*
X0203533Y0478084D02*
X0178556Y0478084D01*
X0179227Y0479083D02*
X0203533Y0479083D01*
X0203533Y0480081D02*
X0180062Y0480081D01*
X0181100Y0481080D02*
X0203533Y0481080D01*
X0203533Y0482078D02*
X0182462Y0482078D01*
X0184426Y0483077D02*
X0203533Y0483077D01*
X0203533Y0474090D02*
X0177117Y0474090D01*
X0176966Y0473092D02*
X0203533Y0473092D01*
X0203533Y0472093D02*
X0176946Y0472093D01*
X0176922Y0471095D02*
X0203533Y0471095D01*
X0203533Y0470096D02*
X0176893Y0470096D01*
X0176978Y0469098D02*
X0203533Y0469098D01*
X0203533Y0468099D02*
X0177123Y0468099D01*
X0177383Y0467101D02*
X0203533Y0467101D01*
X0203533Y0466102D02*
X0177748Y0466102D01*
X0178199Y0465104D02*
X0203533Y0465104D01*
X0203533Y0464105D02*
X0178796Y0464105D01*
X0179565Y0463107D02*
X0203533Y0463107D01*
X0203533Y0462108D02*
X0180524Y0462108D01*
X0181772Y0461110D02*
X0203533Y0461110D01*
X0203533Y0460111D02*
X0183524Y0460111D01*
X0188198Y0459113D02*
X0203533Y0459113D01*
X0203333Y0441400D02*
X0173333Y0441400D01*
X0173333Y0296400D01*
X0183333Y0266400D01*
X0193333Y0266400D01*
X0203333Y0296400D01*
X0203333Y0441400D01*
X0173333Y0441400D01*
X0173333Y0296400D01*
X0183333Y0266400D01*
X0193333Y0266400D01*
X0203333Y0296400D01*
X0203333Y0441400D01*
X0203333Y0441139D02*
X0173333Y0441139D01*
X0173333Y0440141D02*
X0203333Y0440141D01*
X0203333Y0439142D02*
X0173333Y0439142D01*
X0173333Y0438144D02*
X0203333Y0438144D01*
X0203333Y0437145D02*
X0173333Y0437145D01*
X0173333Y0436147D02*
X0203333Y0436147D01*
X0203333Y0435148D02*
X0173333Y0435148D01*
X0173333Y0434150D02*
X0203333Y0434150D01*
X0203333Y0433151D02*
X0173333Y0433151D01*
X0173333Y0432153D02*
X0203333Y0432153D01*
X0203333Y0431154D02*
X0173333Y0431154D01*
X0173333Y0430156D02*
X0203333Y0430156D01*
X0203333Y0429157D02*
X0173333Y0429157D01*
X0173333Y0428159D02*
X0203333Y0428159D01*
X0203333Y0427160D02*
X0173333Y0427160D01*
X0173333Y0426162D02*
X0203333Y0426162D01*
X0203333Y0425163D02*
X0173333Y0425163D01*
X0173333Y0424165D02*
X0203333Y0424165D01*
X0203333Y0423166D02*
X0173333Y0423166D01*
X0173333Y0422168D02*
X0203333Y0422168D01*
X0203333Y0421169D02*
X0173333Y0421169D01*
X0173333Y0420171D02*
X0203333Y0420171D01*
X0203333Y0419172D02*
X0173333Y0419172D01*
X0173333Y0418174D02*
X0203333Y0418174D01*
X0203333Y0417175D02*
X0173333Y0417175D01*
X0173333Y0416177D02*
X0203333Y0416177D01*
X0203333Y0415178D02*
X0173333Y0415178D01*
X0173333Y0414180D02*
X0203333Y0414180D01*
X0203333Y0413181D02*
X0173333Y0413181D01*
X0173333Y0412183D02*
X0203333Y0412183D01*
X0203333Y0411184D02*
X0173333Y0411184D01*
X0173333Y0410186D02*
X0203333Y0410186D01*
X0203333Y0409187D02*
X0173333Y0409187D01*
X0173333Y0408189D02*
X0203333Y0408189D01*
X0203333Y0407190D02*
X0173333Y0407190D01*
X0173333Y0406192D02*
X0203333Y0406192D01*
X0203333Y0405193D02*
X0173333Y0405193D01*
X0173333Y0404195D02*
X0203333Y0404195D01*
X0203333Y0403196D02*
X0173333Y0403196D01*
X0173333Y0402198D02*
X0203333Y0402198D01*
X0203333Y0401199D02*
X0173333Y0401199D01*
X0173333Y0400201D02*
X0203333Y0400201D01*
X0203333Y0399202D02*
X0173333Y0399202D01*
X0173333Y0398203D02*
X0203333Y0398203D01*
X0203333Y0397205D02*
X0173333Y0397205D01*
X0173333Y0396206D02*
X0203333Y0396206D01*
X0203333Y0395208D02*
X0173333Y0395208D01*
X0173333Y0394209D02*
X0203333Y0394209D01*
X0203333Y0393211D02*
X0173333Y0393211D01*
X0173333Y0392212D02*
X0203333Y0392212D01*
X0203333Y0391214D02*
X0173333Y0391214D01*
X0173333Y0390215D02*
X0203333Y0390215D01*
X0203333Y0389217D02*
X0173333Y0389217D01*
X0173333Y0388218D02*
X0203333Y0388218D01*
X0203333Y0387220D02*
X0173333Y0387220D01*
X0173333Y0386221D02*
X0203333Y0386221D01*
X0203333Y0385223D02*
X0173333Y0385223D01*
X0173333Y0384224D02*
X0203333Y0384224D01*
X0203333Y0383226D02*
X0173333Y0383226D01*
X0173333Y0382227D02*
X0203333Y0382227D01*
X0203333Y0381229D02*
X0173333Y0381229D01*
X0173333Y0380230D02*
X0203333Y0380230D01*
X0203333Y0379232D02*
X0173333Y0379232D01*
X0173333Y0378233D02*
X0203333Y0378233D01*
X0203333Y0377235D02*
X0173333Y0377235D01*
X0173333Y0376236D02*
X0203333Y0376236D01*
X0203333Y0375238D02*
X0173333Y0375238D01*
X0173333Y0374239D02*
X0203333Y0374239D01*
X0203333Y0373241D02*
X0173333Y0373241D01*
X0173333Y0372242D02*
X0203333Y0372242D01*
X0203333Y0371244D02*
X0173333Y0371244D01*
X0173333Y0370245D02*
X0203333Y0370245D01*
X0203333Y0369247D02*
X0173333Y0369247D01*
X0173333Y0368248D02*
X0203333Y0368248D01*
X0203333Y0367250D02*
X0173333Y0367250D01*
X0173333Y0366251D02*
X0203333Y0366251D01*
X0203333Y0365253D02*
X0173333Y0365253D01*
X0173333Y0364254D02*
X0203333Y0364254D01*
X0203333Y0363256D02*
X0173333Y0363256D01*
X0173333Y0362257D02*
X0203333Y0362257D01*
X0203333Y0361259D02*
X0173333Y0361259D01*
X0173333Y0360260D02*
X0203333Y0360260D01*
X0203333Y0359262D02*
X0173333Y0359262D01*
X0173333Y0358263D02*
X0203333Y0358263D01*
X0203333Y0357265D02*
X0173333Y0357265D01*
X0173333Y0356266D02*
X0203333Y0356266D01*
X0203333Y0355268D02*
X0173333Y0355268D01*
X0173333Y0354269D02*
X0203333Y0354269D01*
X0203333Y0353270D02*
X0173333Y0353270D01*
X0173333Y0352272D02*
X0203333Y0352272D01*
X0203333Y0351273D02*
X0173333Y0351273D01*
X0173333Y0350275D02*
X0203333Y0350275D01*
X0203333Y0349276D02*
X0173333Y0349276D01*
X0173333Y0348278D02*
X0203333Y0348278D01*
X0203333Y0347279D02*
X0173333Y0347279D01*
X0173333Y0346281D02*
X0203333Y0346281D01*
X0203333Y0345282D02*
X0173333Y0345282D01*
X0173333Y0344284D02*
X0203333Y0344284D01*
X0203333Y0343285D02*
X0173333Y0343285D01*
X0173333Y0342287D02*
X0203333Y0342287D01*
X0203333Y0341288D02*
X0173333Y0341288D01*
X0173333Y0340290D02*
X0203333Y0340290D01*
X0203333Y0339291D02*
X0173333Y0339291D01*
X0173333Y0338293D02*
X0203333Y0338293D01*
X0203333Y0337294D02*
X0173333Y0337294D01*
X0173333Y0336296D02*
X0203333Y0336296D01*
X0203333Y0335297D02*
X0173333Y0335297D01*
X0173333Y0334299D02*
X0203333Y0334299D01*
X0203333Y0333300D02*
X0173333Y0333300D01*
X0173333Y0332302D02*
X0203333Y0332302D01*
X0203333Y0331303D02*
X0173333Y0331303D01*
X0173333Y0330305D02*
X0203333Y0330305D01*
X0203333Y0329306D02*
X0173333Y0329306D01*
X0173333Y0328308D02*
X0203333Y0328308D01*
X0203333Y0327309D02*
X0173333Y0327309D01*
X0173333Y0326311D02*
X0203333Y0326311D01*
X0203333Y0325312D02*
X0173333Y0325312D01*
X0173333Y0324314D02*
X0203333Y0324314D01*
X0203333Y0323315D02*
X0173333Y0323315D01*
X0173333Y0322317D02*
X0203333Y0322317D01*
X0203333Y0321318D02*
X0173333Y0321318D01*
X0173333Y0320320D02*
X0203333Y0320320D01*
X0203333Y0319321D02*
X0173333Y0319321D01*
X0173333Y0318323D02*
X0203333Y0318323D01*
X0203333Y0317324D02*
X0173333Y0317324D01*
X0173333Y0316326D02*
X0203333Y0316326D01*
X0203333Y0315327D02*
X0173333Y0315327D01*
X0173333Y0314329D02*
X0203333Y0314329D01*
X0203333Y0313330D02*
X0173333Y0313330D01*
X0173333Y0312332D02*
X0203333Y0312332D01*
X0203333Y0311333D02*
X0173333Y0311333D01*
X0173333Y0310334D02*
X0203333Y0310334D01*
X0203333Y0309336D02*
X0173333Y0309336D01*
X0173333Y0308337D02*
X0203333Y0308337D01*
X0203333Y0307339D02*
X0173333Y0307339D01*
X0173333Y0306340D02*
X0203333Y0306340D01*
X0203333Y0305342D02*
X0173333Y0305342D01*
X0173333Y0304343D02*
X0203333Y0304343D01*
X0203333Y0303345D02*
X0173333Y0303345D01*
X0173333Y0302346D02*
X0203333Y0302346D01*
X0203333Y0301348D02*
X0173333Y0301348D01*
X0173333Y0300349D02*
X0203333Y0300349D01*
X0203333Y0299351D02*
X0173333Y0299351D01*
X0173333Y0298352D02*
X0203333Y0298352D01*
X0203333Y0297354D02*
X0173333Y0297354D01*
X0173348Y0296355D02*
X0203318Y0296355D01*
X0202986Y0295357D02*
X0173681Y0295357D01*
X0174014Y0294358D02*
X0202653Y0294358D01*
X0202320Y0293360D02*
X0174347Y0293360D01*
X0174680Y0292361D02*
X0201987Y0292361D01*
X0201654Y0291363D02*
X0175012Y0291363D01*
X0175345Y0290364D02*
X0201321Y0290364D01*
X0200989Y0289366D02*
X0175678Y0289366D01*
X0176011Y0288367D02*
X0200656Y0288367D01*
X0200323Y0287369D02*
X0176344Y0287369D01*
X0176677Y0286370D02*
X0199990Y0286370D01*
X0199657Y0285372D02*
X0177009Y0285372D01*
X0177342Y0284373D02*
X0199324Y0284373D01*
X0198992Y0283375D02*
X0177675Y0283375D01*
X0178008Y0282376D02*
X0198659Y0282376D01*
X0198326Y0281378D02*
X0178341Y0281378D01*
X0178674Y0280379D02*
X0197993Y0280379D01*
X0197660Y0279381D02*
X0179006Y0279381D01*
X0179339Y0278382D02*
X0197327Y0278382D01*
X0196995Y0277384D02*
X0179672Y0277384D01*
X0180005Y0276385D02*
X0196662Y0276385D01*
X0196329Y0275387D02*
X0180338Y0275387D01*
X0180671Y0274388D02*
X0195996Y0274388D01*
X0195663Y0273390D02*
X0181003Y0273390D01*
X0181336Y0272391D02*
X0195330Y0272391D01*
X0194998Y0271393D02*
X0181669Y0271393D01*
X0182002Y0270394D02*
X0194665Y0270394D01*
X0194332Y0269396D02*
X0182335Y0269396D01*
X0182668Y0268397D02*
X0193999Y0268397D01*
X0193666Y0267399D02*
X0183000Y0267399D01*
X0183333Y0266400D02*
X0193333Y0266400D01*
D11*
X0193333Y0496400D03*
X0123333Y0496400D03*
D12*
X0127333Y0471400D03*
X0158333Y0492400D03*
X0189333Y0471400D03*
D13*
X0198333Y0487400D03*
X0118333Y0446400D03*
M02*
